<svg xmlns="http://www.w3.org/2000/svg" style="display: none;">
  <symbol id="video" viewBox="0 0 24 24">
    <path stroke="none" d="M0 0h24v24H0z" fill="none" />
    <path d="M15 10l4.553 -2.276a1 1 0 0 1 1.447 .894v6.764a1 1 0 0 1 -1.447 .894l-4.553 -2.276v-4z" />
    <path d="M3 6m0 2a2 2 0 0 1 2 -2h8a2 2 0 0 1 2 2v8a2 2 0 0 1 -2 2h-8a2 2 0 0 1 -2 -2z" />
  </symbol>
  <symbol id="record" width="24" height="24" viewBox="0 0 24 24">
    <path stroke="none" d="M0 0h24v24H0z" fill="none" />
    <path d="M8 5.072a8 8 0 1 1 -3.995 7.213l-.005 -.285l.005 -.285a8 8 0 0 1 3.995 -6.643z" />
  </symbol>
  <symbol id="stop" width="24" height="24" viewBox="0 0 24 24">
    <path stroke="none" d="M0 0h24v24H0z" fill="none" />
    <path d="M17 4h-10a3 3 0 0 0 -3 3v10a3 3 0 0 0 3 3h10a3 3 0 0 0 3 -3v-10a3 3 0 0 0 -3 -3z" />
  </symbol>
  <symbol id="camera">
    <path stroke="none" d="M0 0h24v24H0z" fill="none" />
    <path
      d="M5 7h1a2 2 0 0 0 2 -2a1 1 0 0 1 1 -1h6a1 1 0 0 1 1 1a2 2 0 0 0 2 2h1a2 2 0 0 1 2 2v9a2 2 0 0 1 -2 2h-14a2 2 0 0 1 -2 -2v-9a2 2 0 0 1 2 -2" />
    <path d="M9 13a3 3 0 1 0 6 0a3 3 0 0 0 -6 0" />
  </symbol>
  <symbol id="settings" width="24" height="24" viewBox="0 0 24 24">
    <path stroke="none" d="M0 0h24v24H0z" fill="none" />
    <path
      d="M10.325 4.317c.426 -1.756 2.924 -1.756 3.35 0a1.724 1.724 0 0 0 2.573 1.066c1.543 -.94 3.31 .826 2.37 2.37a1.724 1.724 0 0 0 1.065 2.572c1.756 .426 1.756 2.924 0 3.35a1.724 1.724 0 0 0 -1.066 2.573c.94 1.543 -.826 3.31 -2.37 2.37a1.724 1.724 0 0 0 -2.572 1.065c-.426 1.756 -2.924 1.756 -3.35 0a1.724 1.724 0 0 0 -2.573 -1.066c-1.543 .94 -3.31 -.826 -2.37 -2.37a1.724 1.724 0 0 0 -1.065 -2.572c-1.756 -.426 -1.756 -2.924 0 -3.35a1.724 1.724 0 0 0 1.066 -2.573c-.94 -1.543 .826 -3.31 2.37 -2.37c1 .608 2.296 .07 2.572 -1.065z" />
    <path d="M9 12a3 3 0 1 0 6 0a3 3 0 0 0 -6 0" />
  </symbol>
  <symbol id="cancel" width="24" height="24" viewBox="0 0 24 24" fill="none"
    stroke="currentColor" stroke-width="2" stroke-linecap="round" stroke-linejoin="round"
  >
    <path stroke="none" d="M0 0h24v24H0z" fill="none" />
    <path d="M4 7l16 0" />
    <path d="M10 11l0 6" />
    <path d="M14 11l0 6" />
    <path d="M5 7l1 12a2 2 0 0 0 2 2h8a2 2 0 0 0 2 -2l1 -12" />
    <path d="M9 7v-3a1 1 0 0 1 1 -1h4a1 1 0 0 1 1 1v3" />
  </symbol>
</svg>